<mxfile host="app.diagrams.net" modified="2021-04-10T04:41:41.977Z" agent="5.0 (Windows NT 10.0; Win64; x64) AppleWebKit/537.36 (KHTML, like Gecko) Chrome/89.0.4389.114 Safari/537.36" etag="96Bx3R3VVTudP3FV3Ntc" version="14.5.10" type="github">
  <diagram id="OoqbSdTcS4T9Gjm_1H5y" name="Page-1">
    <mxGraphModel dx="1483" dy="836" grid="1" gridSize="10" guides="1" tooltips="1" connect="1" arrows="1" fold="1" page="1" pageScale="1" pageWidth="1920" pageHeight="1200" math="0" shadow="0">
      <root>
        <mxCell id="0" />
        <mxCell id="1" parent="0" />
        <mxCell id="1sFvXLqLy-bslr1NdDsP-1" value="Location" style="rounded=0;whiteSpace=wrap;html=1;" parent="1" vertex="1">
          <mxGeometry x="550" y="330" width="120" height="60" as="geometry" />
        </mxCell>
        <mxCell id="1sFvXLqLy-bslr1NdDsP-3" value="longitute" style="ellipse;whiteSpace=wrap;html=1;" parent="1" vertex="1">
          <mxGeometry x="370" y="210" width="120" height="40" as="geometry" />
        </mxCell>
        <mxCell id="1sFvXLqLy-bslr1NdDsP-4" value="latitude" style="ellipse;whiteSpace=wrap;html=1;" parent="1" vertex="1">
          <mxGeometry x="530" y="210" width="120" height="40" as="geometry" />
        </mxCell>
        <mxCell id="1sFvXLqLy-bslr1NdDsP-5" value="name" style="ellipse;whiteSpace=wrap;html=1;" parent="1" vertex="1">
          <mxGeometry x="690" y="210" width="120" height="40" as="geometry" />
        </mxCell>
        <mxCell id="1sFvXLqLy-bslr1NdDsP-7" value="" style="endArrow=none;html=1;exitX=0.25;exitY=0;exitDx=0;exitDy=0;entryX=0.5;entryY=1;entryDx=0;entryDy=0;" parent="1" source="1sFvXLqLy-bslr1NdDsP-1" target="1sFvXLqLy-bslr1NdDsP-3" edge="1">
          <mxGeometry width="50" height="50" relative="1" as="geometry">
            <mxPoint x="1070" y="630" as="sourcePoint" />
            <mxPoint x="1120" y="580" as="targetPoint" />
          </mxGeometry>
        </mxCell>
        <mxCell id="1sFvXLqLy-bslr1NdDsP-8" value="" style="endArrow=none;html=1;entryX=0.5;entryY=0;entryDx=0;entryDy=0;" parent="1" source="1sFvXLqLy-bslr1NdDsP-4" target="1sFvXLqLy-bslr1NdDsP-1" edge="1">
          <mxGeometry width="50" height="50" relative="1" as="geometry">
            <mxPoint x="520" y="680" as="sourcePoint" />
            <mxPoint x="570" y="630" as="targetPoint" />
          </mxGeometry>
        </mxCell>
        <mxCell id="1sFvXLqLy-bslr1NdDsP-9" value="" style="endArrow=none;html=1;entryX=0.75;entryY=0;entryDx=0;entryDy=0;exitX=0.5;exitY=1;exitDx=0;exitDy=0;" parent="1" source="1sFvXLqLy-bslr1NdDsP-5" target="1sFvXLqLy-bslr1NdDsP-1" edge="1">
          <mxGeometry width="50" height="50" relative="1" as="geometry">
            <mxPoint x="620" y="600" as="sourcePoint" />
            <mxPoint x="670" y="550" as="targetPoint" />
          </mxGeometry>
        </mxCell>
        <mxCell id="1sFvXLqLy-bslr1NdDsP-10" value="At" style="rhombus;whiteSpace=wrap;html=1;" parent="1" vertex="1">
          <mxGeometry x="570" y="430" width="80" height="80" as="geometry" />
        </mxCell>
        <mxCell id="1sFvXLqLy-bslr1NdDsP-12" value="" style="endArrow=none;html=1;strokeWidth=1;exitX=0.5;exitY=0;exitDx=0;exitDy=0;entryX=0.5;entryY=1;entryDx=0;entryDy=0;" parent="1" source="1sFvXLqLy-bslr1NdDsP-10" target="1sFvXLqLy-bslr1NdDsP-1" edge="1">
          <mxGeometry width="50" height="50" relative="1" as="geometry">
            <mxPoint x="490" y="460" as="sourcePoint" />
            <mxPoint x="540" y="410" as="targetPoint" />
          </mxGeometry>
        </mxCell>
        <mxCell id="1sFvXLqLy-bslr1NdDsP-13" value="Events" style="rounded=0;whiteSpace=wrap;html=1;" parent="1" vertex="1">
          <mxGeometry x="550" y="570" width="120" height="60" as="geometry" />
        </mxCell>
        <mxCell id="1sFvXLqLy-bslr1NdDsP-14" value="" style="endArrow=classic;html=1;strokeWidth=7;exitX=0.5;exitY=0;exitDx=0;exitDy=0;entryX=0.5;entryY=1;entryDx=0;entryDy=0;" parent="1" source="1sFvXLqLy-bslr1NdDsP-13" target="1sFvXLqLy-bslr1NdDsP-10" edge="1">
          <mxGeometry width="50" height="50" relative="1" as="geometry">
            <mxPoint x="430" y="620" as="sourcePoint" />
            <mxPoint x="480" y="570" as="targetPoint" />
          </mxGeometry>
        </mxCell>
        <mxCell id="1sFvXLqLy-bslr1NdDsP-15" value="description" style="ellipse;whiteSpace=wrap;html=1;" parent="1" vertex="1">
          <mxGeometry x="670" y="470" width="120" height="40" as="geometry" />
        </mxCell>
        <mxCell id="1sFvXLqLy-bslr1NdDsP-16" value="date" style="ellipse;whiteSpace=wrap;html=1;" parent="1" vertex="1">
          <mxGeometry x="730" y="540" width="120" height="40" as="geometry" />
        </mxCell>
        <mxCell id="1sFvXLqLy-bslr1NdDsP-17" value="time" style="ellipse;whiteSpace=wrap;html=1;" parent="1" vertex="1">
          <mxGeometry x="430" y="470" width="120" height="40" as="geometry" />
        </mxCell>
        <mxCell id="1sFvXLqLy-bslr1NdDsP-18" value="name" style="ellipse;whiteSpace=wrap;html=1;" parent="1" vertex="1">
          <mxGeometry x="360" y="530" width="120" height="40" as="geometry" />
        </mxCell>
        <mxCell id="1sFvXLqLy-bslr1NdDsP-19" value="category" style="ellipse;whiteSpace=wrap;html=1;" parent="1" vertex="1">
          <mxGeometry x="370" y="600" width="120" height="40" as="geometry" />
        </mxCell>
        <mxCell id="1sFvXLqLy-bslr1NdDsP-20" value="phone" style="ellipse;whiteSpace=wrap;html=1;" parent="1" vertex="1">
          <mxGeometry x="740" y="630" width="120" height="40" as="geometry" />
        </mxCell>
        <mxCell id="1sFvXLqLy-bslr1NdDsP-21" value="email address" style="ellipse;whiteSpace=wrap;html=1;" parent="1" vertex="1">
          <mxGeometry x="630" y="700" width="120" height="40" as="geometry" />
        </mxCell>
        <mxCell id="1sFvXLqLy-bslr1NdDsP-22" value="" style="endArrow=none;html=1;strokeWidth=1;exitX=0;exitY=1;exitDx=0;exitDy=0;entryX=0.75;entryY=0;entryDx=0;entryDy=0;" parent="1" source="1sFvXLqLy-bslr1NdDsP-15" target="1sFvXLqLy-bslr1NdDsP-13" edge="1">
          <mxGeometry width="50" height="50" relative="1" as="geometry">
            <mxPoint x="410" y="760" as="sourcePoint" />
            <mxPoint x="460" y="710" as="targetPoint" />
          </mxGeometry>
        </mxCell>
        <mxCell id="1sFvXLqLy-bslr1NdDsP-23" value="" style="endArrow=none;html=1;strokeWidth=1;entryX=1;entryY=0;entryDx=0;entryDy=0;exitX=0;exitY=0.5;exitDx=0;exitDy=0;" parent="1" source="1sFvXLqLy-bslr1NdDsP-16" target="1sFvXLqLy-bslr1NdDsP-13" edge="1">
          <mxGeometry width="50" height="50" relative="1" as="geometry">
            <mxPoint x="420" y="770" as="sourcePoint" />
            <mxPoint x="470" y="720" as="targetPoint" />
          </mxGeometry>
        </mxCell>
        <mxCell id="1sFvXLqLy-bslr1NdDsP-24" value="" style="endArrow=none;html=1;strokeWidth=1;entryX=1;entryY=1;entryDx=0;entryDy=0;exitX=0;exitY=0.5;exitDx=0;exitDy=0;" parent="1" source="1sFvXLqLy-bslr1NdDsP-20" target="1sFvXLqLy-bslr1NdDsP-13" edge="1">
          <mxGeometry width="50" height="50" relative="1" as="geometry">
            <mxPoint x="430" y="780" as="sourcePoint" />
            <mxPoint x="480" y="730" as="targetPoint" />
          </mxGeometry>
        </mxCell>
        <mxCell id="1sFvXLqLy-bslr1NdDsP-25" value="" style="endArrow=none;html=1;strokeWidth=1;entryX=0.75;entryY=1;entryDx=0;entryDy=0;exitX=0.5;exitY=0;exitDx=0;exitDy=0;" parent="1" source="1sFvXLqLy-bslr1NdDsP-21" target="1sFvXLqLy-bslr1NdDsP-13" edge="1">
          <mxGeometry width="50" height="50" relative="1" as="geometry">
            <mxPoint x="440" y="790" as="sourcePoint" />
            <mxPoint x="490" y="740" as="targetPoint" />
          </mxGeometry>
        </mxCell>
        <mxCell id="1sFvXLqLy-bslr1NdDsP-26" value="" style="endArrow=none;html=1;strokeWidth=1;entryX=0.176;entryY=-0.026;entryDx=0;entryDy=0;entryPerimeter=0;exitX=1;exitY=1;exitDx=0;exitDy=0;" parent="1" source="1sFvXLqLy-bslr1NdDsP-17" target="1sFvXLqLy-bslr1NdDsP-13" edge="1">
          <mxGeometry width="50" height="50" relative="1" as="geometry">
            <mxPoint x="450" y="800" as="sourcePoint" />
            <mxPoint x="500" y="750" as="targetPoint" />
          </mxGeometry>
        </mxCell>
        <mxCell id="1sFvXLqLy-bslr1NdDsP-27" value="" style="endArrow=none;html=1;strokeWidth=1;entryX=0;entryY=0;entryDx=0;entryDy=0;exitX=1;exitY=0.5;exitDx=0;exitDy=0;" parent="1" source="1sFvXLqLy-bslr1NdDsP-18" target="1sFvXLqLy-bslr1NdDsP-13" edge="1">
          <mxGeometry width="50" height="50" relative="1" as="geometry">
            <mxPoint x="460" y="810" as="sourcePoint" />
            <mxPoint x="510" y="760" as="targetPoint" />
          </mxGeometry>
        </mxCell>
        <mxCell id="1sFvXLqLy-bslr1NdDsP-28" value="" style="endArrow=none;html=1;strokeWidth=1;entryX=0;entryY=0.75;entryDx=0;entryDy=0;exitX=1;exitY=0.5;exitDx=0;exitDy=0;" parent="1" source="1sFvXLqLy-bslr1NdDsP-19" target="1sFvXLqLy-bslr1NdDsP-13" edge="1">
          <mxGeometry width="50" height="50" relative="1" as="geometry">
            <mxPoint x="470" y="820" as="sourcePoint" />
            <mxPoint x="520" y="770" as="targetPoint" />
          </mxGeometry>
        </mxCell>
        <mxCell id="1sFvXLqLy-bslr1NdDsP-29" value="Join" style="rhombus;whiteSpace=wrap;html=1;" parent="1" vertex="1">
          <mxGeometry x="230" y="380" width="120" height="60" as="geometry" />
        </mxCell>
        <mxCell id="1sFvXLqLy-bslr1NdDsP-30" value="User" style="rounded=0;whiteSpace=wrap;html=1;" parent="1" vertex="1">
          <mxGeometry x="920" y="380" width="120" height="60" as="geometry" />
        </mxCell>
        <mxCell id="1sFvXLqLy-bslr1NdDsP-31" value="" style="endArrow=none;html=1;strokeWidth=1;exitX=1;exitY=0.5;exitDx=0;exitDy=0;entryX=0;entryY=0.5;entryDx=0;entryDy=0;" parent="1" source="1sFvXLqLy-bslr1NdDsP-29" target="1sFvXLqLy-bslr1NdDsP-30" edge="1">
          <mxGeometry width="50" height="50" relative="1" as="geometry">
            <mxPoint x="260" y="520" as="sourcePoint" />
            <mxPoint x="310" y="470" as="targetPoint" />
          </mxGeometry>
        </mxCell>
        <mxCell id="VM_1HZuykjOo2gR1_Nzt-12" style="edgeStyle=none;rounded=0;orthogonalLoop=1;jettySize=auto;html=1;exitX=1;exitY=1;exitDx=0;exitDy=0;entryX=0;entryY=0;entryDx=0;entryDy=0;endArrow=none;endFill=0;" edge="1" parent="1" source="1sFvXLqLy-bslr1NdDsP-32" target="1sFvXLqLy-bslr1NdDsP-30">
          <mxGeometry relative="1" as="geometry" />
        </mxCell>
        <mxCell id="1sFvXLqLy-bslr1NdDsP-32" value="UID" style="ellipse;whiteSpace=wrap;html=1;" parent="1" vertex="1">
          <mxGeometry x="760" y="330" width="120" height="40" as="geometry" />
        </mxCell>
        <mxCell id="VM_1HZuykjOo2gR1_Nzt-11" style="edgeStyle=none;rounded=0;orthogonalLoop=1;jettySize=auto;html=1;exitX=0;exitY=1;exitDx=0;exitDy=0;endArrow=none;endFill=0;" edge="1" parent="1" source="1sFvXLqLy-bslr1NdDsP-33" target="1sFvXLqLy-bslr1NdDsP-30">
          <mxGeometry relative="1" as="geometry" />
        </mxCell>
        <mxCell id="1sFvXLqLy-bslr1NdDsP-33" value="password" style="ellipse;whiteSpace=wrap;html=1;" parent="1" vertex="1">
          <mxGeometry x="1060" y="330" width="120" height="40" as="geometry" />
        </mxCell>
        <mxCell id="1sFvXLqLy-bslr1NdDsP-36" value="comments" style="rhombus;whiteSpace=wrap;html=1;" parent="1" vertex="1">
          <mxGeometry x="920" y="570" width="120" height="60" as="geometry" />
        </mxCell>
        <mxCell id="1sFvXLqLy-bslr1NdDsP-37" value="" style="endArrow=none;html=1;strokeWidth=1;entryX=0.5;entryY=0;entryDx=0;entryDy=0;" parent="1" source="1sFvXLqLy-bslr1NdDsP-30" target="1sFvXLqLy-bslr1NdDsP-36" edge="1">
          <mxGeometry width="50" height="50" relative="1" as="geometry">
            <mxPoint x="600" y="810" as="sourcePoint" />
            <mxPoint x="650" y="760" as="targetPoint" />
          </mxGeometry>
        </mxCell>
        <mxCell id="1sFvXLqLy-bslr1NdDsP-38" value="" style="endArrow=none;html=1;strokeWidth=1;entryX=0;entryY=0.5;entryDx=0;entryDy=0;exitX=1;exitY=0.5;exitDx=0;exitDy=0;" parent="1" source="1sFvXLqLy-bslr1NdDsP-13" target="1sFvXLqLy-bslr1NdDsP-36" edge="1">
          <mxGeometry width="50" height="50" relative="1" as="geometry">
            <mxPoint x="400" y="800" as="sourcePoint" />
            <mxPoint x="450" y="750" as="targetPoint" />
          </mxGeometry>
        </mxCell>
        <mxCell id="1sFvXLqLy-bslr1NdDsP-39" value="text" style="ellipse;whiteSpace=wrap;html=1;" parent="1" vertex="1">
          <mxGeometry x="1090" y="520" width="120" height="40" as="geometry" />
        </mxCell>
        <mxCell id="1sFvXLqLy-bslr1NdDsP-40" value="5-star rating" style="ellipse;whiteSpace=wrap;html=1;" parent="1" vertex="1">
          <mxGeometry x="1090" y="580" width="120" height="40" as="geometry" />
        </mxCell>
        <mxCell id="1sFvXLqLy-bslr1NdDsP-41" value="timestamp" style="ellipse;whiteSpace=wrap;html=1;" parent="1" vertex="1">
          <mxGeometry x="1090" y="640" width="120" height="40" as="geometry" />
        </mxCell>
        <mxCell id="1sFvXLqLy-bslr1NdDsP-42" value="" style="endArrow=none;html=1;strokeWidth=1;entryX=0;entryY=0.5;entryDx=0;entryDy=0;exitX=1;exitY=0.5;exitDx=0;exitDy=0;" parent="1" source="1sFvXLqLy-bslr1NdDsP-36" target="1sFvXLqLy-bslr1NdDsP-39" edge="1">
          <mxGeometry width="50" height="50" relative="1" as="geometry">
            <mxPoint x="570" y="790" as="sourcePoint" />
            <mxPoint x="620" y="740" as="targetPoint" />
          </mxGeometry>
        </mxCell>
        <mxCell id="1sFvXLqLy-bslr1NdDsP-43" value="" style="endArrow=none;html=1;strokeWidth=1;entryX=0;entryY=0.5;entryDx=0;entryDy=0;exitX=1;exitY=0.5;exitDx=0;exitDy=0;" parent="1" source="1sFvXLqLy-bslr1NdDsP-36" target="1sFvXLqLy-bslr1NdDsP-40" edge="1">
          <mxGeometry width="50" height="50" relative="1" as="geometry">
            <mxPoint x="580" y="800" as="sourcePoint" />
            <mxPoint x="630" y="750" as="targetPoint" />
          </mxGeometry>
        </mxCell>
        <mxCell id="1sFvXLqLy-bslr1NdDsP-44" value="" style="endArrow=none;html=1;strokeWidth=1;entryX=0;entryY=0.5;entryDx=0;entryDy=0;exitX=1;exitY=0.5;exitDx=0;exitDy=0;" parent="1" source="1sFvXLqLy-bslr1NdDsP-36" target="1sFvXLqLy-bslr1NdDsP-41" edge="1">
          <mxGeometry width="50" height="50" relative="1" as="geometry">
            <mxPoint x="590" y="810" as="sourcePoint" />
            <mxPoint x="640" y="760" as="targetPoint" />
          </mxGeometry>
        </mxCell>
        <mxCell id="1sFvXLqLy-bslr1NdDsP-46" value="" style="triangle;whiteSpace=wrap;html=1;rotation=-180;" parent="1" vertex="1">
          <mxGeometry x="1220" y="370" width="60" height="80" as="geometry" />
        </mxCell>
        <mxCell id="1sFvXLqLy-bslr1NdDsP-49" value="ISA" style="text;html=1;strokeColor=none;fillColor=none;align=center;verticalAlign=middle;whiteSpace=wrap;rounded=0;rotation=-90;strokeWidth=1;fontSize=19;" parent="1" vertex="1">
          <mxGeometry x="1240" y="400" width="40" height="20" as="geometry" />
        </mxCell>
        <mxCell id="1sFvXLqLy-bslr1NdDsP-50" value="" style="endArrow=none;html=1;strokeWidth=1;fontSize=19;entryX=1;entryY=0.5;entryDx=0;entryDy=0;exitX=1;exitY=0.5;exitDx=0;exitDy=0;" parent="1" source="1sFvXLqLy-bslr1NdDsP-30" target="1sFvXLqLy-bslr1NdDsP-46" edge="1">
          <mxGeometry width="50" height="50" relative="1" as="geometry">
            <mxPoint x="510" y="770" as="sourcePoint" />
            <mxPoint x="560" y="720" as="targetPoint" />
          </mxGeometry>
        </mxCell>
        <mxCell id="1sFvXLqLy-bslr1NdDsP-52" value="" style="triangle;whiteSpace=wrap;html=1;rotation=-180;direction=south;" parent="1" vertex="1">
          <mxGeometry x="570" y="750" width="80" height="60" as="geometry" />
        </mxCell>
        <mxCell id="1sFvXLqLy-bslr1NdDsP-53" value="ISA" style="text;html=1;strokeColor=none;fillColor=none;align=center;verticalAlign=middle;whiteSpace=wrap;rounded=0;rotation=0;strokeWidth=1;fontSize=19;" parent="1" vertex="1">
          <mxGeometry x="590" y="780" width="40" height="20" as="geometry" />
        </mxCell>
        <mxCell id="1sFvXLqLy-bslr1NdDsP-54" value="" style="endArrow=none;html=1;strokeWidth=1;fontSize=19;entryX=0.5;entryY=1;entryDx=0;entryDy=0;exitX=1;exitY=0.5;exitDx=0;exitDy=0;" parent="1" source="1sFvXLqLy-bslr1NdDsP-52" target="1sFvXLqLy-bslr1NdDsP-13" edge="1">
          <mxGeometry width="50" height="50" relative="1" as="geometry">
            <mxPoint x="360" y="880" as="sourcePoint" />
            <mxPoint x="410" y="830" as="targetPoint" />
          </mxGeometry>
        </mxCell>
        <mxCell id="1sFvXLqLy-bslr1NdDsP-55" value="Private events&amp;nbsp;" style="rounded=0;whiteSpace=wrap;html=1;" parent="1" vertex="1">
          <mxGeometry x="740" y="880" width="120" height="60" as="geometry" />
        </mxCell>
        <mxCell id="1sFvXLqLy-bslr1NdDsP-56" value="Public Events&lt;br&gt;" style="rounded=0;whiteSpace=wrap;html=1;" parent="1" vertex="1">
          <mxGeometry x="980" y="880" width="120" height="60" as="geometry" />
        </mxCell>
        <mxCell id="1sFvXLqLy-bslr1NdDsP-57" value="" style="endArrow=none;html=1;strokeWidth=1;fontSize=19;entryX=-0.021;entryY=0.032;entryDx=0;entryDy=0;entryPerimeter=0;exitX=0.5;exitY=0;exitDx=0;exitDy=0;" parent="1" source="1sFvXLqLy-bslr1NdDsP-60" target="1sFvXLqLy-bslr1NdDsP-52" edge="1">
          <mxGeometry width="50" height="50" relative="1" as="geometry">
            <mxPoint x="470" y="1000" as="sourcePoint" />
            <mxPoint x="520" y="950" as="targetPoint" />
          </mxGeometry>
        </mxCell>
        <mxCell id="1sFvXLqLy-bslr1NdDsP-58" value="" style="endArrow=none;html=1;strokeWidth=1;fontSize=19;exitX=0.5;exitY=0;exitDx=0;exitDy=0;" parent="1" source="1sFvXLqLy-bslr1NdDsP-55" edge="1">
          <mxGeometry width="50" height="50" relative="1" as="geometry">
            <mxPoint x="480" y="1010" as="sourcePoint" />
            <mxPoint x="650" y="810" as="targetPoint" />
          </mxGeometry>
        </mxCell>
        <mxCell id="1sFvXLqLy-bslr1NdDsP-59" value="" style="endArrow=none;html=1;strokeWidth=1;fontSize=19;entryX=0.002;entryY=0.996;entryDx=0;entryDy=0;entryPerimeter=0;exitX=0.5;exitY=0;exitDx=0;exitDy=0;" parent="1" source="1sFvXLqLy-bslr1NdDsP-56" target="1sFvXLqLy-bslr1NdDsP-52" edge="1">
          <mxGeometry width="50" height="50" relative="1" as="geometry">
            <mxPoint x="490" y="1020" as="sourcePoint" />
            <mxPoint x="540" y="970" as="targetPoint" />
          </mxGeometry>
        </mxCell>
        <mxCell id="1sFvXLqLy-bslr1NdDsP-60" value="RSO events" style="rounded=0;whiteSpace=wrap;html=1;" parent="1" vertex="1">
          <mxGeometry x="390" y="880" width="120" height="60" as="geometry" />
        </mxCell>
        <mxCell id="1sFvXLqLy-bslr1NdDsP-61" value="owns" style="rhombus;whiteSpace=wrap;html=1;" parent="1" vertex="1">
          <mxGeometry x="390" y="1000" width="120" height="60" as="geometry" />
        </mxCell>
        <mxCell id="1sFvXLqLy-bslr1NdDsP-62" value="" style="endArrow=classic;html=1;strokeWidth=7;exitX=0.5;exitY=1;exitDx=0;exitDy=0;entryX=0.5;entryY=0;entryDx=0;entryDy=0;" parent="1" source="1sFvXLqLy-bslr1NdDsP-60" target="1sFvXLqLy-bslr1NdDsP-61" edge="1">
          <mxGeometry width="50" height="50" relative="1" as="geometry">
            <mxPoint x="620" y="580" as="sourcePoint" />
            <mxPoint x="620" y="520" as="targetPoint" />
          </mxGeometry>
        </mxCell>
        <mxCell id="1sFvXLqLy-bslr1NdDsP-63" value="RSOs" style="rounded=0;whiteSpace=wrap;html=1;" parent="1" vertex="1">
          <mxGeometry x="390" y="1130" width="120" height="60" as="geometry" />
        </mxCell>
        <mxCell id="1sFvXLqLy-bslr1NdDsP-65" value="" style="endArrow=none;html=1;strokeWidth=1;fontSize=19;entryX=0.5;entryY=0;entryDx=0;entryDy=0;exitX=0.5;exitY=1;exitDx=0;exitDy=0;" parent="1" source="1sFvXLqLy-bslr1NdDsP-61" target="1sFvXLqLy-bslr1NdDsP-63" edge="1">
          <mxGeometry width="50" height="50" relative="1" as="geometry">
            <mxPoint x="170" y="1080" as="sourcePoint" />
            <mxPoint x="220" y="1030" as="targetPoint" />
          </mxGeometry>
        </mxCell>
        <mxCell id="1sFvXLqLy-bslr1NdDsP-66" value="" style="endArrow=none;html=1;strokeWidth=1;fontSize=19;entryX=0;entryY=0.5;entryDx=0;entryDy=0;exitX=0;exitY=0.5;exitDx=0;exitDy=0;" parent="1" source="1sFvXLqLy-bslr1NdDsP-29" target="1sFvXLqLy-bslr1NdDsP-63" edge="1">
          <mxGeometry width="50" height="50" relative="1" as="geometry">
            <mxPoint x="179.99999999999977" y="1090" as="sourcePoint" />
            <mxPoint x="229.99999999999977" y="1040" as="targetPoint" />
            <Array as="points">
              <mxPoint x="90" y="410" />
              <mxPoint x="90" y="1160" />
            </Array>
          </mxGeometry>
        </mxCell>
        <mxCell id="1sFvXLqLy-bslr1NdDsP-67" value="admin" style="ellipse;whiteSpace=wrap;html=1;" parent="1" vertex="1">
          <mxGeometry x="310" y="1260" width="120" height="40" as="geometry" />
        </mxCell>
        <mxCell id="1sFvXLqLy-bslr1NdDsP-68" value="email domain" style="ellipse;whiteSpace=wrap;html=1;" parent="1" vertex="1">
          <mxGeometry x="480" y="1260" width="120" height="40" as="geometry" />
        </mxCell>
        <mxCell id="1sFvXLqLy-bslr1NdDsP-70" value="" style="endArrow=none;html=1;strokeWidth=1;fontSize=19;exitX=0.5;exitY=0;exitDx=0;exitDy=0;entryX=0.25;entryY=1;entryDx=0;entryDy=0;" parent="1" source="1sFvXLqLy-bslr1NdDsP-67" target="1sFvXLqLy-bslr1NdDsP-63" edge="1">
          <mxGeometry width="50" height="50" relative="1" as="geometry">
            <mxPoint x="280" y="1050" as="sourcePoint" />
            <mxPoint x="330" y="1000" as="targetPoint" />
          </mxGeometry>
        </mxCell>
        <mxCell id="1sFvXLqLy-bslr1NdDsP-71" value="" style="endArrow=none;html=1;strokeWidth=1;fontSize=19;entryX=0.75;entryY=1;entryDx=0;entryDy=0;exitX=0.5;exitY=0;exitDx=0;exitDy=0;" parent="1" source="1sFvXLqLy-bslr1NdDsP-68" target="1sFvXLqLy-bslr1NdDsP-63" edge="1">
          <mxGeometry width="50" height="50" relative="1" as="geometry">
            <mxPoint x="289.9999999999998" y="1060" as="sourcePoint" />
            <mxPoint x="339.9999999999998" y="1010" as="targetPoint" />
          </mxGeometry>
        </mxCell>
        <mxCell id="1sFvXLqLy-bslr1NdDsP-72" value="creates" style="rhombus;whiteSpace=wrap;html=1;" parent="1" vertex="1">
          <mxGeometry x="600" y="1130" width="120" height="60" as="geometry" />
        </mxCell>
        <mxCell id="1sFvXLqLy-bslr1NdDsP-73" value="" style="endArrow=classic;html=1;strokeWidth=7;exitX=1;exitY=0.5;exitDx=0;exitDy=0;entryX=0;entryY=0.5;entryDx=0;entryDy=0;" parent="1" source="1sFvXLqLy-bslr1NdDsP-63" target="1sFvXLqLy-bslr1NdDsP-72" edge="1">
          <mxGeometry width="50" height="50" relative="1" as="geometry">
            <mxPoint x="460" y="950" as="sourcePoint" />
            <mxPoint x="460" y="1010" as="targetPoint" />
          </mxGeometry>
        </mxCell>
        <mxCell id="1sFvXLqLy-bslr1NdDsP-74" value="Admins" style="rounded=0;whiteSpace=wrap;html=1;" parent="1" vertex="1">
          <mxGeometry x="780" y="1130" width="120" height="60" as="geometry" />
        </mxCell>
        <mxCell id="1sFvXLqLy-bslr1NdDsP-76" value="" style="endArrow=none;html=1;strokeWidth=1;fontSize=19;entryX=0;entryY=0.5;entryDx=0;entryDy=0;exitX=1;exitY=0.5;exitDx=0;exitDy=0;" parent="1" source="1sFvXLqLy-bslr1NdDsP-72" target="1sFvXLqLy-bslr1NdDsP-74" edge="1">
          <mxGeometry width="50" height="50" relative="1" as="geometry">
            <mxPoint x="179.99999999999977" y="1080" as="sourcePoint" />
            <mxPoint x="229.99999999999977" y="1030" as="targetPoint" />
          </mxGeometry>
        </mxCell>
        <mxCell id="1sFvXLqLy-bslr1NdDsP-78" value="creates" style="rhombus;whiteSpace=wrap;html=1;" parent="1" vertex="1">
          <mxGeometry x="740" y="1010" width="120" height="60" as="geometry" />
        </mxCell>
        <mxCell id="1sFvXLqLy-bslr1NdDsP-79" value="" style="endArrow=classic;html=1;strokeWidth=7;exitX=0.5;exitY=1;exitDx=0;exitDy=0;entryX=0.5;entryY=0;entryDx=0;entryDy=0;" parent="1" source="1sFvXLqLy-bslr1NdDsP-55" target="1sFvXLqLy-bslr1NdDsP-78" edge="1">
          <mxGeometry width="50" height="50" relative="1" as="geometry">
            <mxPoint x="460" y="950" as="sourcePoint" />
            <mxPoint x="460" y="1010" as="targetPoint" />
          </mxGeometry>
        </mxCell>
        <mxCell id="1sFvXLqLy-bslr1NdDsP-80" value="" style="endArrow=none;html=1;strokeWidth=1;fontSize=19;entryX=0.5;entryY=1;entryDx=0;entryDy=0;" parent="1" target="1sFvXLqLy-bslr1NdDsP-78" edge="1">
          <mxGeometry width="50" height="50" relative="1" as="geometry">
            <mxPoint x="800" y="1130" as="sourcePoint" />
            <mxPoint x="229.99999999999977" y="1030" as="targetPoint" />
          </mxGeometry>
        </mxCell>
        <mxCell id="1sFvXLqLy-bslr1NdDsP-81" value="SuperAdmins" style="rounded=0;whiteSpace=wrap;html=1;" parent="1" vertex="1">
          <mxGeometry x="980" y="1010" width="120" height="60" as="geometry" />
        </mxCell>
        <mxCell id="1sFvXLqLy-bslr1NdDsP-82" value="" style="endArrow=none;html=1;strokeWidth=1;fontSize=19;entryX=0;entryY=0.5;entryDx=0;entryDy=0;exitX=1;exitY=0.5;exitDx=0;exitDy=0;" parent="1" source="1sFvXLqLy-bslr1NdDsP-78" target="1sFvXLqLy-bslr1NdDsP-81" edge="1">
          <mxGeometry width="50" height="50" relative="1" as="geometry">
            <mxPoint x="179.99999999999977" y="1080" as="sourcePoint" />
            <mxPoint x="229.99999999999977" y="1030" as="targetPoint" />
          </mxGeometry>
        </mxCell>
        <mxCell id="1sFvXLqLy-bslr1NdDsP-83" value="" style="endArrow=classic;html=1;strokeWidth=7;exitX=0.5;exitY=1;exitDx=0;exitDy=0;entryX=0.5;entryY=0;entryDx=0;entryDy=0;" parent="1" source="1sFvXLqLy-bslr1NdDsP-56" target="1sFvXLqLy-bslr1NdDsP-81" edge="1">
          <mxGeometry width="50" height="50" relative="1" as="geometry">
            <mxPoint x="810" y="950" as="sourcePoint" />
            <mxPoint x="810" y="1020" as="targetPoint" />
          </mxGeometry>
        </mxCell>
        <mxCell id="1sFvXLqLy-bslr1NdDsP-84" value="" style="endArrow=none;html=1;strokeWidth=1;fontSize=19;entryX=1;entryY=0.5;entryDx=0;entryDy=0;exitX=0;exitY=0.25;exitDx=0;exitDy=0;" parent="1" source="1sFvXLqLy-bslr1NdDsP-46" target="1sFvXLqLy-bslr1NdDsP-81" edge="1">
          <mxGeometry width="50" height="50" relative="1" as="geometry">
            <mxPoint x="1210" y="860" as="sourcePoint" />
            <mxPoint x="229.99999999999977" y="1030" as="targetPoint" />
            <Array as="points">
              <mxPoint x="1400" y="430" />
              <mxPoint x="1400" y="1040" />
            </Array>
          </mxGeometry>
        </mxCell>
        <mxCell id="1sFvXLqLy-bslr1NdDsP-85" value="" style="endArrow=none;html=1;strokeWidth=1;fontSize=19;entryX=1;entryY=0.5;entryDx=0;entryDy=0;exitX=0;exitY=0.75;exitDx=0;exitDy=0;" parent="1" source="1sFvXLqLy-bslr1NdDsP-46" target="1sFvXLqLy-bslr1NdDsP-74" edge="1">
          <mxGeometry width="50" height="50" relative="1" as="geometry">
            <mxPoint x="1090" y="1130" as="sourcePoint" />
            <mxPoint x="239.99999999999977" y="1040" as="targetPoint" />
            <Array as="points">
              <mxPoint x="1560" y="390" />
              <mxPoint x="1560" y="1160" />
            </Array>
          </mxGeometry>
        </mxCell>
        <mxCell id="VM_1HZuykjOo2gR1_Nzt-10" style="edgeStyle=none;rounded=0;orthogonalLoop=1;jettySize=auto;html=1;exitX=0.5;exitY=1;exitDx=0;exitDy=0;entryX=0.5;entryY=0;entryDx=0;entryDy=0;endArrow=none;endFill=0;" edge="1" parent="1" source="VM_1HZuykjOo2gR1_Nzt-1" target="1sFvXLqLy-bslr1NdDsP-30">
          <mxGeometry relative="1" as="geometry" />
        </mxCell>
        <mxCell id="VM_1HZuykjOo2gR1_Nzt-1" value="first name" style="ellipse;whiteSpace=wrap;html=1;" vertex="1" parent="1">
          <mxGeometry x="920" y="180" width="120" height="40" as="geometry" />
        </mxCell>
        <mxCell id="VM_1HZuykjOo2gR1_Nzt-7" style="edgeStyle=none;rounded=0;orthogonalLoop=1;jettySize=auto;html=1;exitX=0;exitY=1;exitDx=0;exitDy=0;endArrow=none;endFill=0;" edge="1" parent="1" source="VM_1HZuykjOo2gR1_Nzt-2">
          <mxGeometry relative="1" as="geometry">
            <mxPoint x="1010" y="380" as="targetPoint" />
          </mxGeometry>
        </mxCell>
        <mxCell id="VM_1HZuykjOo2gR1_Nzt-2" value="role" style="ellipse;whiteSpace=wrap;html=1;" vertex="1" parent="1">
          <mxGeometry x="1050" y="280" width="120" height="40" as="geometry" />
        </mxCell>
        <mxCell id="VM_1HZuykjOo2gR1_Nzt-6" style="rounded=0;orthogonalLoop=1;jettySize=auto;html=1;exitX=1;exitY=1;exitDx=0;exitDy=0;entryX=0.25;entryY=0;entryDx=0;entryDy=0;endArrow=none;endFill=0;" edge="1" parent="1" source="VM_1HZuykjOo2gR1_Nzt-3" target="1sFvXLqLy-bslr1NdDsP-30">
          <mxGeometry relative="1" as="geometry" />
        </mxCell>
        <mxCell id="VM_1HZuykjOo2gR1_Nzt-3" value="email" style="ellipse;whiteSpace=wrap;html=1;" vertex="1" parent="1">
          <mxGeometry x="790" y="280" width="120" height="40" as="geometry" />
        </mxCell>
        <mxCell id="VM_1HZuykjOo2gR1_Nzt-8" style="edgeStyle=none;rounded=0;orthogonalLoop=1;jettySize=auto;html=1;exitX=0.5;exitY=1;exitDx=0;exitDy=0;entryX=0.643;entryY=0.007;entryDx=0;entryDy=0;entryPerimeter=0;endArrow=none;endFill=0;" edge="1" parent="1" source="VM_1HZuykjOo2gR1_Nzt-4" target="1sFvXLqLy-bslr1NdDsP-30">
          <mxGeometry relative="1" as="geometry" />
        </mxCell>
        <mxCell id="VM_1HZuykjOo2gR1_Nzt-4" value="last name" style="ellipse;whiteSpace=wrap;html=1;" vertex="1" parent="1">
          <mxGeometry x="1000" y="230" width="120" height="40" as="geometry" />
        </mxCell>
        <mxCell id="VM_1HZuykjOo2gR1_Nzt-9" style="edgeStyle=none;rounded=0;orthogonalLoop=1;jettySize=auto;html=1;exitX=1;exitY=1;exitDx=0;exitDy=0;entryX=0.43;entryY=0.033;entryDx=0;entryDy=0;entryPerimeter=0;endArrow=none;endFill=0;" edge="1" parent="1" source="VM_1HZuykjOo2gR1_Nzt-5" target="1sFvXLqLy-bslr1NdDsP-30">
          <mxGeometry relative="1" as="geometry" />
        </mxCell>
        <mxCell id="VM_1HZuykjOo2gR1_Nzt-5" value="universities" style="ellipse;whiteSpace=wrap;html=1;" vertex="1" parent="1">
          <mxGeometry x="820" y="230" width="120" height="40" as="geometry" />
        </mxCell>
        <mxCell id="VM_1HZuykjOo2gR1_Nzt-14" style="edgeStyle=none;rounded=0;orthogonalLoop=1;jettySize=auto;html=1;exitX=1;exitY=0;exitDx=0;exitDy=0;entryX=0;entryY=1;entryDx=0;entryDy=0;endArrow=none;endFill=0;" edge="1" parent="1" source="VM_1HZuykjOo2gR1_Nzt-13" target="1sFvXLqLy-bslr1NdDsP-13">
          <mxGeometry relative="1" as="geometry" />
        </mxCell>
        <mxCell id="VM_1HZuykjOo2gR1_Nzt-13" value="type" style="ellipse;whiteSpace=wrap;html=1;" vertex="1" parent="1">
          <mxGeometry x="380" y="660" width="120" height="40" as="geometry" />
        </mxCell>
        <mxCell id="VM_1HZuykjOo2gR1_Nzt-16" style="edgeStyle=none;rounded=0;orthogonalLoop=1;jettySize=auto;html=1;exitX=0.5;exitY=0;exitDx=0;exitDy=0;entryX=0.167;entryY=1.027;entryDx=0;entryDy=0;entryPerimeter=0;endArrow=none;endFill=0;" edge="1" parent="1" source="VM_1HZuykjOo2gR1_Nzt-15" target="1sFvXLqLy-bslr1NdDsP-13">
          <mxGeometry relative="1" as="geometry" />
        </mxCell>
        <mxCell id="VM_1HZuykjOo2gR1_Nzt-15" value="EID" style="ellipse;whiteSpace=wrap;html=1;" vertex="1" parent="1">
          <mxGeometry x="480" y="700" width="120" height="40" as="geometry" />
        </mxCell>
        <mxCell id="VM_1HZuykjOo2gR1_Nzt-18" style="edgeStyle=none;rounded=0;orthogonalLoop=1;jettySize=auto;html=1;exitX=0;exitY=1;exitDx=0;exitDy=0;entryX=1;entryY=0;entryDx=0;entryDy=0;endArrow=none;endFill=0;" edge="1" parent="1" source="VM_1HZuykjOo2gR1_Nzt-17" target="1sFvXLqLy-bslr1NdDsP-81">
          <mxGeometry relative="1" as="geometry" />
        </mxCell>
        <mxCell id="VM_1HZuykjOo2gR1_Nzt-17" value="university" style="ellipse;whiteSpace=wrap;html=1;" vertex="1" parent="1">
          <mxGeometry x="1140" y="960" width="120" height="40" as="geometry" />
        </mxCell>
        <mxCell id="VM_1HZuykjOo2gR1_Nzt-20" style="edgeStyle=none;rounded=0;orthogonalLoop=1;jettySize=auto;html=1;exitX=1;exitY=1;exitDx=0;exitDy=0;entryX=0;entryY=0;entryDx=0;entryDy=0;endArrow=none;endFill=0;" edge="1" parent="1" target="1sFvXLqLy-bslr1NdDsP-60">
          <mxGeometry relative="1" as="geometry">
            <mxPoint x="362.42640687119297" y="854.1421356237308" as="sourcePoint" />
          </mxGeometry>
        </mxCell>
        <mxCell id="VM_1HZuykjOo2gR1_Nzt-22" style="edgeStyle=none;rounded=0;orthogonalLoop=1;jettySize=auto;html=1;exitX=1;exitY=1;exitDx=0;exitDy=0;entryX=0;entryY=0.5;entryDx=0;entryDy=0;endArrow=none;endFill=0;" edge="1" parent="1" source="VM_1HZuykjOo2gR1_Nzt-21" target="1sFvXLqLy-bslr1NdDsP-60">
          <mxGeometry relative="1" as="geometry" />
        </mxCell>
        <mxCell id="VM_1HZuykjOo2gR1_Nzt-21" value="type" style="ellipse;whiteSpace=wrap;html=1;" vertex="1" parent="1">
          <mxGeometry x="220" y="880" width="120" height="40" as="geometry" />
        </mxCell>
        <mxCell id="VM_1HZuykjOo2gR1_Nzt-24" style="edgeStyle=none;rounded=0;orthogonalLoop=1;jettySize=auto;html=1;exitX=0.5;exitY=0;exitDx=0;exitDy=0;entryX=1;entryY=1;entryDx=0;entryDy=0;endArrow=none;endFill=0;" edge="1" parent="1" source="VM_1HZuykjOo2gR1_Nzt-23" target="1sFvXLqLy-bslr1NdDsP-74">
          <mxGeometry relative="1" as="geometry" />
        </mxCell>
        <mxCell id="VM_1HZuykjOo2gR1_Nzt-23" value="university" style="ellipse;whiteSpace=wrap;html=1;" vertex="1" parent="1">
          <mxGeometry x="890" y="1210" width="120" height="40" as="geometry" />
        </mxCell>
        <mxCell id="VM_1HZuykjOo2gR1_Nzt-26" style="edgeStyle=none;rounded=0;orthogonalLoop=1;jettySize=auto;html=1;exitX=1;exitY=0;exitDx=0;exitDy=0;entryX=0;entryY=1;entryDx=0;entryDy=0;endArrow=none;endFill=0;" edge="1" parent="1" source="VM_1HZuykjOo2gR1_Nzt-25" target="1sFvXLqLy-bslr1NdDsP-63">
          <mxGeometry relative="1" as="geometry" />
        </mxCell>
        <mxCell id="VM_1HZuykjOo2gR1_Nzt-25" value="event approval" style="ellipse;whiteSpace=wrap;html=1;" vertex="1" parent="1">
          <mxGeometry x="200" y="1190" width="120" height="40" as="geometry" />
        </mxCell>
      </root>
    </mxGraphModel>
  </diagram>
</mxfile>
